<svg width="18" height="18" viewBox="0 0 18 18" fill="none" xmlns="http://www.w3.org/2000/svg">
<path d="M16.092 7.6155C16.1842 8.10975 16.2345 8.6265 16.2345 9.16575C16.2345 13.3838 13.4115 16.383 9.14774 16.383C8.17811 16.3833 7.21792 16.1925 6.32204 15.8216C5.42616 15.4507 4.61215 14.9069 3.92651 14.2212C3.24088 13.5356 2.69706 12.7216 2.32614 11.8257C1.95521 10.9298 1.76444 9.96964 1.76474 9C1.76444 8.03037 1.95521 7.07018 2.32614 6.1743C2.69706 5.27842 3.24088 4.46441 3.92651 3.77878C4.61215 3.09314 5.42616 2.54933 6.32204 2.1784C7.21792 1.80747 8.17811 1.61671 9.14774 1.617C11.1412 1.617 12.807 2.3505 14.085 3.5415L12.0037 5.62275V5.6175C11.229 4.8795 10.2457 4.50075 9.14774 4.50075C6.71174 4.50075 4.73174 6.55875 4.73174 8.9955C4.73174 11.4315 6.71174 13.494 9.14774 13.494C11.358 13.494 12.8625 12.2303 13.1715 10.4948H9.14774V7.6155H16.0927H16.092Z" fill="#312ECB"/>
</svg>
